<?xml version="1.0" standalone="no"?>
<!DOCTYPE svg PUBLIC "-//W3C//DTD SVG 20010904//EN"
 "http://www.w3.org/TR/2001/REC-SVG-20010904/DTD/svg10.dtd">
<svg version="1.0" xmlns="http://www.w3.org/2000/svg"
 width="980.000000pt" height="980.000000pt" viewBox="0 0 980.000000 980.000000"
 preserveAspectRatio="xMidYMid meet">

<g transform="translate(0.000000,980.000000) scale(0.100000,-0.100000)"
fill="#000000" stroke="none">
<path d="M3008 5420 l-87 -120 501 -2 c342 -2 502 -6 505 -14 2 -5 -24 -48
-57 -95 -33 -46 -59 -88 -57 -94 2 -6 88 -11 224 -13 l221 -2 30 37 c88 113
112 155 112 203 0 98 -79 185 -190 209 -33 7 -237 11 -583 11 l-532 -1 -87
-119z"/>
<path d="M4628 5352 c-75 -103 -151 -206 -168 -229 l-32 -43 625 0 624 0 160
218 c88 119 163 223 167 230 6 9 -46 12 -246 12 l-253 0 -99 -135 -98 -135
-110 0 c-92 0 -109 2 -105 15 4 8 44 66 92 130 47 63 85 117 85 120 0 3 -114
5 -252 5 l-253 -1 -137 -187z"/>
<path d="M6023 5323 c-87 -120 -163 -224 -167 -230 -6 -10 49 -13 261 -13
l268 0 130 177 c72 98 147 201 168 230 l38 53 -269 0 -269 0 -160 -217z"/>
<path d="M3035 5009 c-93 -128 -174 -238 -178 -246 -8 -12 59 -14 480 -11 470
4 490 5 553 26 95 31 179 85 256 163 l68 69 -291 0 c-305 0 -353 4 -353 27 0
7 27 50 60 95 46 62 57 85 49 95 -9 10 -63 13 -243 13 l-231 0 -170 -231z"/>
<path d="M2120 4985 l0 -25 394 0 394 0 16 25 16 25 -410 0 -410 0 0 -25z"/>
<path d="M4290 4893 c-47 -64 -89 -122 -93 -130 -7 -11 38 -13 246 -13 l253 0
90 122 c49 67 91 126 92 130 2 4 -110 8 -250 8 l-253 -1 -85 -116z"/>
<path d="M5030 4894 c-47 -64 -89 -123 -93 -130 -7 -12 32 -14 245 -14 l253 0
85 116 c47 64 89 123 93 130 7 12 -35 14 -245 14 l-253 0 -85 -116z"/>
<path d="M5755 4958 c-57 -86 -42 -146 47 -184 39 -17 81 -19 500 -22 l457 -3
87 118 c48 65 91 124 97 131 7 9 -108 12 -572 12 l-580 0 -36 -52z"/>
<path d="M7032 4990 c-6 -11 -12 -22 -12 -25 0 -3 149 -5 330 -5 l330 0 0 25
0 25 -318 0 c-306 0 -318 -1 -330 -20z"/>
<path d="M2120 4885 l0 -25 353 0 c330 0 355 1 370 18 10 10 17 22 17 25 0 4
-166 7 -370 7 l-370 0 0 -25z"/>
<path d="M6956 4885 l-16 -25 370 0 370 0 0 25 0 25 -354 0 -354 0 -16 -25z"/>
<path d="M2120 4780 l0 -30 313 0 c287 0 315 2 329 18 37 43 46 42 -306 42
l-336 0 0 -30z"/>
<path d="M6888 4793 c-38 -44 -50 -43 381 -43 l411 0 0 30 0 30 -388 0 c-358
0 -390 -1 -404 -17z"/>
<path d="M5510 4334 c-62 -24 -102 -50 -120 -80 -23 -36 -20 -48 17 -77 31
-25 29 -40 -9 -72 -26 -22 -40 -26 -80 -24 -49 3 -76 -10 -64 -30 22 -35 166
13 204 67 29 39 28 67 -3 94 -32 28 -31 41 3 68 21 17 36 21 69 17 29 -3 46 0
54 9 7 8 10 17 7 19 -8 8 -63 14 -78 9z"/>
<path d="M5720 4331 c-68 -21 -130 -73 -130 -109 0 -9 12 -28 26 -43 19 -19
24 -33 19 -48 -10 -32 -61 -54 -110 -49 -33 4 -44 1 -53 -13 -13 -20 2 -29 46
-29 63 0 182 82 182 126 0 8 -13 28 -29 45 -17 17 -27 37 -24 45 9 23 61 46
98 43 18 -2 40 3 50 11 16 13 16 15 -2 21 -23 9 -41 9 -73 0z"/>
<path d="M4183 4308 c-29 -33 -183 -245 -183 -252 0 -13 163 -2 167 11 3 8
-14 13 -53 15 l-57 3 35 45 c32 43 37 45 90 48 34 2 61 9 68 17 11 13 5 15
-39 15 -28 0 -51 3 -51 8 0 4 14 24 31 45 29 35 34 37 89 37 39 0 62 5 70 15
11 13 2 15 -67 15 -70 0 -82 -3 -100 -22z"/>
<path d="M4416 4308 c-3 -13 -6 -44 -6 -70 l0 -47 -100 -68 c-62 -42 -94 -69
-84 -71 8 -2 54 21 100 52 46 31 86 56 89 56 3 0 5 -25 5 -55 0 -52 1 -55 25
-55 24 0 25 2 25 73 l0 74 96 64 c58 39 89 65 79 67 -9 2 -51 -19 -94 -47 -42
-28 -80 -51 -84 -51 -4 0 -7 23 -7 50 0 42 -3 50 -19 50 -11 0 -21 -9 -25 -22z"/>
<path d="M4628 4203 c-116 -156 -114 -153 -91 -153 10 0 36 24 58 55 37 50 43
54 80 55 51 0 135 39 163 75 52 66 34 95 -59 95 l-57 0 -94 -127z m166 91 c52
-20 -33 -104 -105 -104 -27 0 -24 10 16 64 35 44 54 53 89 40z"/>
<path d="M4953 4308 c-43 -49 -185 -249 -180 -255 12 -12 37 8 77 61 34 47 46
56 72 56 29 0 30 -2 24 -30 -3 -16 -9 -43 -12 -60 -6 -26 -4 -30 14 -30 16 0
24 10 33 43 6 23 12 54 13 69 1 22 9 31 37 42 38 15 89 68 89 91 0 22 -34 35
-93 35 -43 0 -58 -4 -74 -22z m95 -17 c40 -25 -30 -85 -92 -79 l-35 3 35 43
c35 41 63 52 92 33z"/>
<path d="M5123 4192 l-101 -137 80 -3 c58 -2 84 1 89 10 6 10 -5 14 -46 16
-30 2 -55 5 -55 7 0 3 14 25 32 50 31 44 33 45 89 45 38 0 61 5 69 15 11 13 6
15 -39 15 -28 0 -51 3 -51 7 0 4 12 24 26 45 26 37 28 38 89 38 43 0 66 5 75
15 11 13 2 15 -71 15 l-84 0 -102 -138z"/>
</g>
</svg>
