<?xml version="1.0" standalone="no"?>
<!DOCTYPE svg PUBLIC "-//W3C//DTD SVG 20010904//EN"
 "http://www.w3.org/TR/2001/REC-SVG-20010904/DTD/svg10.dtd">
<svg version="1.0" xmlns="http://www.w3.org/2000/svg"
 width="860.000000pt" height="279.000000pt" viewBox="0 0 860.000000 279.000000"
 preserveAspectRatio="xMidYMid meet">

<g transform="translate(0.000000,279.000000) scale(0.100000,-0.100000)"
fill="#000000" stroke="none">
<path d="M2570 2380 c0 -5 5 -10 10 -10 6 0 10 -16 10 -35 0 -19 5 -35 10 -35
6 0 10 16 10 35 0 19 5 35 10 35 6 0 10 5 10 10 0 6 -13 10 -30 10 -16 0 -30
-4 -30 -10z"/>
<path d="M2651 2343 c1 -42 2 -44 9 -18 l7 30 7 -27 c5 -16 12 -28 16 -28 9 0
20 26 19 43 0 7 -4 3 -8 -8 -7 -18 -10 -16 -24 18 -9 20 -18 37 -21 37 -4 0
-5 -21 -5 -47z"/>
<path d="M2716 2382 c-8 -13 5 -82 15 -82 12 0 11 77 0 85 -5 3 -12 1 -15 -3z"/>
<path d="M300 1275 l0 -1105 1110 0 1110 0 0 1105 0 1105 -1110 0 -1110 0 0
-1105z m1163 811 c362 -5 431 -8 450 -21 21 -15 20 -15 -18 -15 -22 0 -260 -5
-529 -10 -269 -6 -491 -8 -494 -6 -2 3 20 18 48 34 36 21 63 29 84 27 17 -3
224 -7 459 -9z m277 -222 c320 -4 398 -8 409 -19 8 -8 13 -16 10 -19 -2 -2
-344 -7 -759 -12 -740 -7 -755 -7 -740 12 46 60 14 56 365 50 176 -3 498 -8
715 -12z m20 -223 c465 -5 515 -8 518 -22 3 -15 -54 -17 -645 -23 -356 -3
-748 -8 -870 -11 -243 -6 -237 -7 -212 49 l12 25 341 -6 c187 -3 573 -8 856
-12z m-1092 -190 c8 -5 12 -21 10 -37 l-3 -29 -99 -3 c-87 -2 -98 -1 -92 13 3
9 6 28 6 41 0 23 2 24 83 24 45 0 88 -4 95 -9z m288 -153 l68 -151 17 39 c10
21 38 90 64 152 l47 112 85 0 84 0 -3 -32 c-2 -25 -8 -34 -25 -36 -23 -3 -23
-6 -23 -148 l0 -144 25 0 c22 0 25 -4 25 -35 l0 -35 -90 0 -90 0 0 35 c0 31 3
35 25 35 l25 0 0 120 c0 66 -2 120 -4 120 -2 0 -32 -70 -66 -155 -62 -154 -62
-155 -94 -155 -28 0 -33 5 -56 58 -13 31 -45 102 -71 157 l-47 100 -1 -122 -1
-123 25 0 c22 0 25 -4 25 -35 l0 -35 -90 0 -90 0 0 35 c0 31 3 35 25 35 l25 0
0 144 c0 142 0 145 -22 148 -18 2 -24 11 -26 36 l-3 32 84 0 85 0 68 -152z
m705 123 c38 -39 41 -109 7 -144 l-23 -22 33 -31 c28 -27 32 -38 32 -83 0 -42
-5 -56 -29 -83 l-29 -33 -152 -3 -151 -3 3 33 c2 25 8 34 26 36 22 3 22 6 22
147 0 141 0 144 -22 147 -18 2 -24 11 -26 36 l-3 32 141 0 142 0 29 -29z m419
-36 l0 -65 -40 0 c-38 0 -40 2 -40 30 l0 30 -60 0 -60 0 0 -55 0 -55 70 0 70
0 0 -30 c0 -29 0 -29 -67 -32 l-68 -3 -3 -57 -3 -58 61 0 60 0 0 30 c0 28 2
30 40 30 l40 0 0 -65 0 -65 -165 0 -165 0 0 35 c0 31 3 35 25 35 l25 0 0 144
c0 142 0 145 -22 148 -18 2 -24 11 -26 36 l-3 32 165 0 166 0 0 -65z m260 30
c0 -12 -18 -15 -105 -15 -87 0 -105 3 -105 15 0 12 18 15 105 15 87 0 105 -3
105 -15z m-1698 -135 c38 0 39 -1 36 -32 l-3 -33 -97 -3 -98 -3 0 42 0 42 61
-7 c34 -3 80 -6 101 -6z m1708 -35 c0 -12 -19 -15 -110 -15 -91 0 -110 3 -110
15 0 12 19 15 110 15 91 0 110 -3 110 -15z m-1672 -182 l3 -33 -85 0 c-47 0
-86 1 -86 3 0 1 -4 17 -9 35 l-10 33 92 -3 92 -3 3 -32z m1620 11 c21 -4 29
-11 25 -20 -4 -11 -28 -14 -99 -14 -87 0 -94 1 -94 20 0 18 7 20 69 20 38 0
82 -3 99 -6z m-336 -181 c229 -5 295 -9 291 -18 -5 -15 -242 -21 -1115 -31
l-546 -6 -16 30 c-9 17 -16 34 -16 38 0 7 846 0 1402 -13z m-74 -219 c206 -6
232 -8 219 -21 -12 -13 -113 -16 -688 -20 l-674 -5 -29 31 -29 31 484 -5 c266
-3 589 -8 717 -11z m-258 -193 c227 -5 262 -8 242 -19 -18 -10 -127 -16 -436
-24 l-413 -10 -52 26 c-28 15 -51 29 -51 31 0 6 366 4 710 -4z"/>
<path d="M1490 1330 l0 -50 48 0 c62 0 91 26 76 68 -9 25 -15 27 -67 30 l-57
3 0 -51z"/>
<path d="M1490 1150 l0 -60 48 0 c57 0 92 21 92 56 0 40 -33 64 -90 64 l-50 0
0 -60z"/>
<path d="M5342 1476 c-59 -19 -107 -58 -139 -114 -23 -39 -28 -59 -28 -117 0
-59 5 -78 28 -118 55 -94 160 -141 263 -118 175 40 250 240 141 383 -59 77
-173 114 -265 84z m218 -231 l0 -145 -145 0 -145 0 0 138 c0 76 3 142 7 145 3
4 69 7 145 7 l138 0 0 -145z"/>
<path d="M6577 1475 c-46 -16 -64 -30 -83 -66 -28 -55 -10 -130 38 -161 13 -8
48 -23 78 -33 66 -21 90 -40 90 -72 0 -65 -88 -84 -125 -26 -17 27 -26 32 -57
33 l-38 0 0 -70 0 -70 35 0 c23 0 35 5 35 14 0 10 9 9 40 -6 136 -68 268 117
156 219 -19 17 -54 37 -78 43 -74 20 -98 37 -98 69 0 34 27 61 62 61 25 0 58
-27 58 -48 0 -7 16 -12 40 -12 l40 0 0 65 0 65 -29 0 c-17 0 -33 -5 -36 -10
-4 -6 -13 -7 -23 -1 -34 17 -68 19 -105 6z"/>
<path d="M7848 1479 c-49 -14 -126 -83 -149 -134 -20 -44 -24 -121 -9 -176 13
-47 72 -115 124 -141 61 -31 147 -30 211 3 45 23 115 96 115 120 0 5 -21 9
-47 9 -36 0 -53 -6 -72 -24 -59 -55 -150 -52 -209 8 -31 30 -36 43 -40 93 -3
49 0 64 20 93 27 41 80 70 126 70 38 0 110 -34 119 -55 3 -10 20 -15 49 -15
l44 0 0 75 0 75 -35 0 c-28 0 -35 -4 -35 -20 0 -25 -1 -25 -43 0 -42 25 -118
33 -169 19z"/>
<path d="M2930 1440 c0 -36 2 -40 25 -40 l25 0 0 -155 0 -155 -25 0 c-22 0
-25 -4 -25 -40 l0 -40 95 0 95 0 0 40 c0 36 -2 40 -25 40 l-25 0 1 128 0 127
28 -70 c16 -38 45 -114 66 -168 37 -97 38 -98 69 -95 30 3 32 6 93 168 l62
165 1 -127 0 -128 -25 0 c-22 0 -25 -4 -25 -40 l0 -40 95 0 95 0 0 40 c0 36
-2 40 -25 40 l-25 0 0 155 0 155 25 0 c23 0 25 4 25 40 l0 41 -87 -3 -87 -3
-60 -157 c-34 -87 -63 -158 -66 -158 -3 0 -32 71 -65 158 l-60 157 -88 3 -87
3 0 -41z"/>
<path d="M3700 1441 c0 -35 3 -40 24 -43 25 -3 25 -3 -41 -155 -58 -136 -68
-153 -89 -153 -21 0 -24 -4 -24 -40 l0 -41 93 3 92 3 0 30 c0 23 -5 31 -22 33
-27 4 -26 1 -12 41 l11 31 79 0 c77 0 79 -1 94 -30 20 -38 19 -40 -10 -40 -22
0 -25 -4 -25 -35 l0 -35 101 0 100 0 -3 37 c-3 33 -7 39 -31 43 -26 5 -34 20
-109 198 l-81 192 -73 0 -74 0 0 -39z m138 -128 c11 -32 23 -66 27 -75 6 -16
1 -18 -49 -18 -31 0 -56 2 -56 4 0 8 52 146 55 146 2 0 12 -26 23 -57z"/>
<path d="M4110 1440 c0 -36 2 -40 25 -40 l25 0 0 -155 0 -155 -25 0 c-22 0
-25 -4 -25 -40 l0 -40 96 0 95 0 -3 38 c-2 30 -7 38 -25 40 -23 3 -23 5 -23
158 l0 154 26 0 c23 0 25 3 22 38 l-3 37 -92 3 -93 3 0 -41z"/>
<path d="M4330 1440 c0 -36 3 -40 25 -40 l25 0 0 -155 0 -155 -25 0 c-22 0
-25 -4 -25 -40 l0 -40 175 0 175 0 0 86 0 85 -42 -3 c-43 -3 -43 -3 -46 -45
l-3 -43 -60 0 -59 0 0 155 0 155 25 0 c23 0 25 4 25 40 l0 40 -95 0 -95 0 0
-40z"/>
<path d="M4810 1440 c0 -36 3 -40 25 -40 l25 0 0 -155 0 -155 -25 0 c-22 0
-25 -4 -25 -40 l0 -40 109 0 c137 0 165 6 201 42 52 51 48 144 -6 187 l-25 19
27 39 c48 70 14 154 -72 173 -21 5 -83 10 -136 10 l-98 0 0 -40z m234 -62 c9
-12 16 -28 16 -35 0 -25 -39 -53 -75 -53 l-35 0 0 55 0 55 39 0 c30 0 44 -6
55 -22z m0 -179 c53 -42 20 -109 -54 -109 l-40 0 0 65 0 65 34 0 c19 0 45 -9
60 -21z"/>
<path d="M5640 1440 c0 -36 3 -40 24 -40 18 0 40 -19 85 -76 l61 -77 -37 -46
c-20 -25 -48 -59 -61 -76 -14 -16 -36 -32 -51 -35 -22 -4 -26 -10 -26 -40 l0
-35 95 0 95 0 3 33 c3 29 1 32 -23 32 l-26 0 38 50 c21 27 41 49 45 50 4 0 23
-21 43 -47 34 -45 35 -48 16 -51 -17 -3 -21 -11 -21 -38 l0 -34 95 0 95 0 0
40 c0 36 -3 40 -24 40 -18 0 -40 19 -86 76 -34 42 -59 81 -57 87 3 7 30 42 61
80 43 50 63 67 82 67 23 0 25 3 22 38 l-3 37 -95 0 -95 0 -3 -32 c-3 -28 0
-33 17 -33 12 0 21 -3 21 -6 0 -12 -63 -93 -69 -90 -4 3 -21 25 -39 50 -31 42
-32 46 -13 46 17 0 21 6 21 35 l0 35 -95 0 -95 0 0 -40z"/>
<path d="M6120 1440 c0 -36 3 -40 25 -40 l25 0 0 -155 0 -155 -25 0 c-22 0
-25 -4 -25 -40 l0 -40 170 0 170 0 0 70 0 70 -45 0 c-43 0 -45 -1 -45 -30 0
-30 -1 -30 -55 -30 l-55 0 0 60 0 60 65 0 65 0 0 35 0 35 -65 0 -65 0 0 60 0
60 55 0 c54 0 55 0 55 -30 0 -29 2 -30 45 -30 l45 0 0 70 0 70 -170 0 -170 0
0 -40z"/>
<path d="M6917 1474 c-4 -4 -7 -22 -7 -41 0 -29 3 -33 25 -33 l25 0 0 -155 0
-155 -25 0 c-22 0 -25 -4 -25 -40 l0 -40 175 0 175 0 0 70 0 70 -45 0 c-43 0
-45 -1 -45 -30 l0 -30 -60 0 -60 0 0 60 0 60 70 0 70 0 0 35 0 35 -70 0 -70 0
0 60 0 61 58 -3 c54 -3 57 -4 60 -30 3 -26 7 -28 48 -28 l45 0 -3 68 -3 67
-166 3 c-91 1 -168 -1 -172 -4z"/>
<path d="M7310 1405 l0 -75 35 0 c33 0 35 2 35 36 0 34 1 35 33 32 l32 -3 3
-152 3 -153 -26 0 c-23 0 -25 -4 -25 -40 l0 -41 93 3 92 3 0 35 c0 29 -4 36
-22 38 -23 3 -23 5 -23 158 l0 154 30 0 c28 0 30 -3 30 -35 0 -33 2 -35 35
-35 l35 0 0 75 0 75 -180 0 -180 0 0 -75z"/>
<path d="M8191 1456 c-21 -25 -9 -79 21 -95 25 -14 29 -14 55 5 34 25 41 59
17 85 -20 23 -76 25 -93 5z m89 -16 c14 -26 5 -57 -21 -71 -43 -23 -92 44 -57
79 20 20 66 15 78 -8z"/>
<path d="M8210 1413 c1 -33 2 -35 12 -19 10 18 12 18 23 3 10 -14 12 -11 13
18 1 31 -2 35 -23 35 -22 0 -25 -4 -25 -37z m40 17 c0 -5 -7 -10 -16 -10 -8 0
-12 5 -9 10 3 6 10 10 16 10 5 0 9 -4 9 -10z"/>
<path d="M8140 1045 c0 -34 1 -35 40 -35 39 0 40 1 40 35 0 34 -1 35 -40 35
-39 0 -40 -1 -40 -35z"/>
</g>
</svg>
