<?xml version="1.0" standalone="no"?>
<!DOCTYPE svg PUBLIC "-//W3C//DTD SVG 20010904//EN"
 "http://www.w3.org/TR/2001/REC-SVG-20010904/DTD/svg10.dtd">
<svg version="1.0" xmlns="http://www.w3.org/2000/svg"
 width="860.000000pt" height="279.000000pt" viewBox="0 0 860.000000 279.000000"
 preserveAspectRatio="xMidYMid meet">

<g transform="translate(0.000000,279.000000) scale(0.100000,-0.100000)"
fill="#000000" stroke="none">
<path d="M920 2068 c-28 -16 -50 -31 -48 -34 3 -2 225 0 494 6 269 5 507 10
529 10 38 0 39 0 18 15 -19 13 -88 16 -450 21 -235 2 -442 6 -459 9 -21 2 -48
-6 -84 -27z"/>
<path d="M689 1863 c-8 -10 -21 -27 -29 -37 -15 -19 0 -19 740 -12 415 5 757
10 759 12 3 3 -2 11 -10 19 -11 11 -89 15 -409 19 -217 4 -539 9 -715 12 -302
5 -321 4 -336 -13z"/>
<path d="M551 1634 c-25 -56 -31 -55 212 -49 122 3 514 8 870 11 591 6 648 8
645 23 -3 14 -53 17 -518 22 -283 4 -669 9 -856 12 l-341 6 -12 -25z"/>
<path d="M490 1436 c0 -13 -3 -32 -6 -41 -6 -14 5 -15 92 -13 l99 3 3 29 c2
16 -2 32 -10 37 -7 5 -50 9 -95 9 -81 0 -83 -1 -83 -24z"/>
<path d="M8202 1448 c-35 -35 14 -102 57 -79 45 25 33 91 -17 91 -16 0 -33 -5
-40 -12z m56 -33 c-1 -29 -3 -32 -13 -18 -11 15 -13 15 -23 -3 -10 -16 -11
-14 -12 19 0 33 3 37 25 37 21 0 24 -4 23 -35z"/>
<path d="M8225 1430 c-3 -5 1 -10 9 -10 9 0 16 5 16 10 0 6 -4 10 -9 10 -6 0
-13 -4 -16 -10z"/>
<path d="M722 1418 c2 -25 8 -34 26 -36 22 -3 22 -6 22 -148 l0 -144 -25 0
c-22 0 -25 -4 -25 -35 l0 -35 90 0 90 0 0 35 c0 31 -3 35 -25 35 l-25 0 1 123
1 122 47 -100 c26 -55 58 -126 71 -157 23 -53 28 -58 56 -58 32 0 32 1 94 155
34 85 64 155 66 155 2 0 4 -54 4 -120 l0 -120 -25 0 c-22 0 -25 -4 -25 -35 l0
-35 90 0 90 0 0 35 c0 31 -3 35 -25 35 l-25 0 0 144 c0 142 0 145 23 148 17 2
23 11 25 36 l3 32 -84 0 -85 0 -47 -112 c-26 -62 -54 -131 -64 -152 l-17 -39
-68 151 -68 152 -85 0 -84 0 3 -32z"/>
<path d="M1352 1418 c2 -25 8 -34 26 -36 22 -3 22 -6 22 -147 0 -141 0 -144
-22 -147 -18 -2 -24 -11 -26 -36 l-3 -33 151 3 152 3 29 33 c24 27 29 41 29
83 0 45 -4 56 -32 83 l-33 31 23 22 c34 35 31 105 -7 144 l-29 29 -142 0 -141
0 3 -32z m262 -70 c15 -42 -14 -68 -76 -68 l-48 0 0 50 0 51 57 -3 c52 -3 58
-5 67 -30z m-4 -158 c48 -48 10 -100 -72 -100 l-48 0 0 60 0 60 50 0 c37 0 55
-5 70 -20z"/>
<path d="M1752 1418 c2 -25 8 -34 26 -36 22 -3 22 -6 22 -148 l0 -144 -25 0
c-22 0 -25 -4 -25 -35 l0 -35 165 0 165 0 0 65 0 65 -40 0 c-38 0 -40 -2 -40
-30 l0 -30 -60 0 -61 0 3 58 3 57 68 3 c67 3 67 3 67 32 l0 30 -70 0 -70 0 0
55 0 55 60 0 60 0 0 -30 c0 -28 2 -30 40 -30 l40 0 0 65 0 65 -166 0 -165 0 3
-32z"/>
<path d="M2130 1415 c0 -12 18 -15 105 -15 87 0 105 3 105 15 0 12 -18 15
-105 15 -87 0 -105 -3 -105 -15z"/>
<path d="M480 1251 l0 -42 98 3 97 3 3 33 c3 31 2 32 -36 32 -21 0 -67 3 -101
6 l-61 7 0 -42z"/>
<path d="M2130 1245 c0 -12 19 -15 110 -15 91 0 110 3 110 15 0 12 -19 15
-110 15 -91 0 -110 -3 -110 -15z"/>
<path d="M501 1068 c5 -18 9 -34 9 -35 0 -2 39 -3 86 -3 l85 0 -3 33 -3 32
-92 3 -92 3 10 -33z"/>
<path d="M2130 1060 c0 -19 7 -20 94 -20 71 0 95 3 99 14 7 18 -33 26 -124 26
-62 0 -69 -2 -69 -20z"/>
<path d="M560 906 c0 -4 7 -21 16 -38 l16 -30 546 6 c873 10 1110 16 1115 31
4 9 -62 13 -291 18 -556 13 -1402 20 -1402 13z"/>
<path d="M716 659 l29 -31 674 5 c575 4 676 7 688 20 13 13 -13 15 -219 21
-128 3 -451 8 -717 11 l-484 5 29 -31z"/>
<path d="M920 485 c0 -2 23 -16 51 -31 l52 -26 413 10 c309 8 418 14 436 24
20 11 -15 14 -242 19 -344 8 -710 10 -710 4z"/>
</g>
</svg>
