<?xml version="1.0" standalone="no"?>
<svg xmlns:xlink="http://www.w3.org/1999/xlink" id="wave" style="transform:rotate(180deg); transition: 0.3s" viewBox="0 0 1440 490" version="1.1" xmlns="http://www.w3.org/2000/svg"><defs><linearGradient id="sw-gradient-0" x1="0" x2="0" y1="1" y2="0"><stop stop-color="rgba(196.124, 190.624, 188.857, 1)" offset="0%"/><stop stop-color="rgba(191.57, 191.57, 191.57, 1)" offset="100%"/></linearGradient></defs><path style="transform:translate(0, 0px); opacity:1" fill="url(#sw-gradient-0)" d="M0,392L80,343C160,294,320,196,480,171.5C640,147,800,196,960,245C1120,294,1280,343,1440,334.8C1600,327,1760,261,1920,220.5C2080,180,2240,163,2400,204.2C2560,245,2720,343,2880,392C3040,441,3200,441,3360,441C3520,441,3680,441,3840,441C4000,441,4160,441,4320,400.2C4480,359,4640,278,4800,228.7C4960,180,5120,163,5280,187.8C5440,212,5600,278,5760,318.5C5920,359,6080,376,6240,351.2C6400,327,6560,261,6720,196C6880,131,7040,65,7200,65.3C7360,65,7520,131,7680,147C7840,163,8000,131,8160,163.3C8320,196,8480,294,8640,285.8C8800,278,8960,163,9120,147C9280,131,9440,212,9600,253.2C9760,294,9920,294,10080,294C10240,294,10400,294,10560,285.8C10720,278,10880,261,11040,228.7C11200,196,11360,147,11440,122.5L11520,98L11520,490L11440,490C11360,490,11200,490,11040,490C10880,490,10720,490,10560,490C10400,490,10240,490,10080,490C9920,490,9760,490,9600,490C9440,490,9280,490,9120,490C8960,490,8800,490,8640,490C8480,490,8320,490,8160,490C8000,490,7840,490,7680,490C7520,490,7360,490,7200,490C7040,490,6880,490,6720,490C6560,490,6400,490,6240,490C6080,490,5920,490,5760,490C5600,490,5440,490,5280,490C5120,490,4960,490,4800,490C4640,490,4480,490,4320,490C4160,490,4000,490,3840,490C3680,490,3520,490,3360,490C3200,490,3040,490,2880,490C2720,490,2560,490,2400,490C2240,490,2080,490,1920,490C1760,490,1600,490,1440,490C1280,490,1120,490,960,490C800,490,640,490,480,490C320,490,160,490,80,490L0,490Z"/><defs><linearGradient id="sw-gradient-1" x1="0" x2="0" y1="1" y2="0"><stop stop-color="rgba(207.508, 206.122, 205.677, 1)" offset="0%"/><stop stop-color="rgba(173.356, 167.392, 154.21, 1)" offset="100%"/></linearGradient></defs><path style="transform:translate(0, 50px); opacity:0.9" fill="url(#sw-gradient-1)" d="M0,245L80,253.2C160,261,320,278,480,285.8C640,294,800,294,960,245C1120,196,1280,98,1440,106.2C1600,114,1760,229,1920,302.2C2080,376,2240,408,2400,424.7C2560,441,2720,441,2880,375.7C3040,310,3200,180,3360,171.5C3520,163,3680,278,3840,269.5C4000,261,4160,131,4320,65.3C4480,0,4640,0,4800,32.7C4960,65,5120,131,5280,155.2C5440,180,5600,163,5760,163.3C5920,163,6080,180,6240,171.5C6400,163,6560,131,6720,98C6880,65,7040,33,7200,81.7C7360,131,7520,261,7680,334.8C7840,408,8000,425,8160,359.3C8320,294,8480,147,8640,147C8800,147,8960,294,9120,334.8C9280,376,9440,310,9600,253.2C9760,196,9920,147,10080,138.8C10240,131,10400,163,10560,171.5C10720,180,10880,163,11040,147C11200,131,11360,114,11440,106.2L11520,98L11520,490L11440,490C11360,490,11200,490,11040,490C10880,490,10720,490,10560,490C10400,490,10240,490,10080,490C9920,490,9760,490,9600,490C9440,490,9280,490,9120,490C8960,490,8800,490,8640,490C8480,490,8320,490,8160,490C8000,490,7840,490,7680,490C7520,490,7360,490,7200,490C7040,490,6880,490,6720,490C6560,490,6400,490,6240,490C6080,490,5920,490,5760,490C5600,490,5440,490,5280,490C5120,490,4960,490,4800,490C4640,490,4480,490,4320,490C4160,490,4000,490,3840,490C3680,490,3520,490,3360,490C3200,490,3040,490,2880,490C2720,490,2560,490,2400,490C2240,490,2080,490,1920,490C1760,490,1600,490,1440,490C1280,490,1120,490,960,490C800,490,640,490,480,490C320,490,160,490,80,490L0,490Z"/><defs><linearGradient id="sw-gradient-2" x1="0" x2="0" y1="1" y2="0"><stop stop-color="rgba(148.311, 148.311, 148.311, 1)" offset="0%"/><stop stop-color="rgba(225.722, 222.323, 214.81, 1)" offset="100%"/></linearGradient></defs><path style="transform:translate(0, 100px); opacity:0.8" fill="url(#sw-gradient-2)" d="M0,245L80,253.2C160,261,320,278,480,261.3C640,245,800,196,960,220.5C1120,245,1280,343,1440,367.5C1600,392,1760,343,1920,277.7C2080,212,2240,131,2400,81.7C2560,33,2720,16,2880,49C3040,82,3200,163,3360,179.7C3520,196,3680,147,3840,171.5C4000,196,4160,294,4320,351.2C4480,408,4640,425,4800,432.8C4960,441,5120,441,5280,375.7C5440,310,5600,180,5760,163.3C5920,147,6080,245,6240,269.5C6400,294,6560,245,6720,236.8C6880,229,7040,261,7200,261.3C7360,261,7520,229,7680,187.8C7840,147,8000,98,8160,98C8320,98,8480,147,8640,196C8800,245,8960,294,9120,318.5C9280,343,9440,343,9600,302.2C9760,261,9920,180,10080,196C10240,212,10400,327,10560,359.3C10720,392,10880,343,11040,294C11200,245,11360,196,11440,171.5L11520,147L11520,490L11440,490C11360,490,11200,490,11040,490C10880,490,10720,490,10560,490C10400,490,10240,490,10080,490C9920,490,9760,490,9600,490C9440,490,9280,490,9120,490C8960,490,8800,490,8640,490C8480,490,8320,490,8160,490C8000,490,7840,490,7680,490C7520,490,7360,490,7200,490C7040,490,6880,490,6720,490C6560,490,6400,490,6240,490C6080,490,5920,490,5760,490C5600,490,5440,490,5280,490C5120,490,4960,490,4800,490C4640,490,4480,490,4320,490C4160,490,4000,490,3840,490C3680,490,3520,490,3360,490C3200,490,3040,490,2880,490C2720,490,2560,490,2400,490C2240,490,2080,490,1920,490C1760,490,1600,490,1440,490C1280,490,1120,490,960,490C800,490,640,490,480,490C320,490,160,490,80,490L0,490Z"/></svg>