<?xml version="1.0" standalone="no"?>
<svg xmlns:xlink="http://www.w3.org/1999/xlink" id="wave" style="transform:rotate(0deg); transition: 0.3s" viewBox="0 0 1440 490" version="1.1" xmlns="http://www.w3.org/2000/svg"><defs><linearGradient id="sw-gradient-0" x1="0" x2="0" y1="1" y2="0"><stop stop-color="rgba(177.909, 177.482, 177.344, 1)" offset="0%"/><stop stop-color="rgba(212.061, 205.885, 192.232, 1)" offset="100%"/></linearGradient></defs><path style="transform:translate(0, 0px); opacity:1" fill="url(#sw-gradient-0)" d="M0,98L120,147C240,196,480,294,720,310.3C960,327,1200,261,1440,220.5C1680,180,1920,163,2160,196C2400,229,2640,310,2880,334.8C3120,359,3360,327,3600,277.7C3840,229,4080,163,4320,130.7C4560,98,4800,98,5040,147C5280,196,5520,294,5760,310.3C6000,327,6240,261,6480,236.8C6720,212,6960,229,7200,196C7440,163,7680,82,7920,40.8C8160,0,8400,0,8640,65.3C8880,131,9120,261,9360,277.7C9600,294,9840,196,10080,171.5C10320,147,10560,196,10800,245C11040,294,11280,343,11520,351.2C11760,359,12000,327,12240,285.8C12480,245,12720,196,12960,196C13200,196,13440,245,13680,285.8C13920,327,14160,359,14400,359.3C14640,359,14880,327,15120,318.5C15360,310,15600,327,15840,310.3C16080,294,16320,245,16560,196C16800,147,17040,98,17160,73.5L17280,49L17280,490L17160,490C17040,490,16800,490,16560,490C16320,490,16080,490,15840,490C15600,490,15360,490,15120,490C14880,490,14640,490,14400,490C14160,490,13920,490,13680,490C13440,490,13200,490,12960,490C12720,490,12480,490,12240,490C12000,490,11760,490,11520,490C11280,490,11040,490,10800,490C10560,490,10320,490,10080,490C9840,490,9600,490,9360,490C9120,490,8880,490,8640,490C8400,490,8160,490,7920,490C7680,490,7440,490,7200,490C6960,490,6720,490,6480,490C6240,490,6000,490,5760,490C5520,490,5280,490,5040,490C4800,490,4560,490,4320,490C4080,490,3840,490,3600,490C3360,490,3120,490,2880,490C2640,490,2400,490,2160,490C1920,490,1680,490,1440,490C1200,490,960,490,720,490C480,490,240,490,120,490L0,490Z"/></svg>