<?xml version="1.0" standalone="no"?>
<svg xmlns:xlink="http://www.w3.org/1999/xlink" id="wave" style="transform:rotate(180deg); transition: 0.3s" viewBox="0 0 1440 490" version="1.1" xmlns="http://www.w3.org/2000/svg"><defs><linearGradient id="sw-gradient-0" x1="0" x2="0" y1="1" y2="0"><stop stop-color="rgba(191.57, 188.654, 187.717, 1)" offset="0%"/><stop stop-color="rgba(168.802, 167.745, 165.407, 1)" offset="100%"/></linearGradient></defs><path style="transform:translate(0, 0px); opacity:1" fill="url(#sw-gradient-0)" d="M0,147L120,171.5C240,196,480,245,720,220.5C960,196,1200,98,1440,49C1680,0,1920,0,2160,40.8C2400,82,2640,163,2880,196C3120,229,3360,212,3600,228.7C3840,245,4080,294,4320,310.3C4560,327,4800,310,5040,277.7C5280,245,5520,196,5760,155.2C6000,114,6240,82,6480,114.3C6720,147,6960,245,7200,294C7440,343,7680,343,7920,351.2C8160,359,8400,376,8640,334.8C8880,294,9120,196,9360,130.7C9600,65,9840,33,10080,57.2C10320,82,10560,163,10800,196C11040,229,11280,212,11520,179.7C11760,147,12000,98,12240,138.8C12480,180,12720,310,12960,326.7C13200,343,13440,245,13680,187.8C13920,131,14160,114,14400,122.5C14640,131,14880,163,15120,155.2C15360,147,15600,98,15840,114.3C16080,131,16320,212,16560,253.2C16800,294,17040,294,17160,294L17280,294L17280,490L17160,490C17040,490,16800,490,16560,490C16320,490,16080,490,15840,490C15600,490,15360,490,15120,490C14880,490,14640,490,14400,490C14160,490,13920,490,13680,490C13440,490,13200,490,12960,490C12720,490,12480,490,12240,490C12000,490,11760,490,11520,490C11280,490,11040,490,10800,490C10560,490,10320,490,10080,490C9840,490,9600,490,9360,490C9120,490,8880,490,8640,490C8400,490,8160,490,7920,490C7680,490,7440,490,7200,490C6960,490,6720,490,6480,490C6240,490,6000,490,5760,490C5520,490,5280,490,5040,490C4800,490,4560,490,4320,490C4080,490,3840,490,3600,490C3360,490,3120,490,2880,490C2640,490,2400,490,2160,490C1920,490,1680,490,1440,490C1200,490,960,490,720,490C480,490,240,490,120,490L0,490Z"/><defs><linearGradient id="sw-gradient-1" x1="0" x2="0" y1="1" y2="0"><stop stop-color="rgba(180.186, 176.673, 175.545, 1)" offset="0%"/><stop stop-color="rgba(152.865, 152.865, 152.865, 1)" offset="100%"/></linearGradient></defs><path style="transform:translate(0, 50px); opacity:0.9" fill="url(#sw-gradient-1)" d="M0,196L120,220.5C240,245,480,294,720,334.8C960,376,1200,408,1440,408.3C1680,408,1920,376,2160,310.3C2400,245,2640,147,2880,155.2C3120,163,3360,278,3600,326.7C3840,376,4080,359,4320,318.5C4560,278,4800,212,5040,220.5C5280,229,5520,310,5760,302.2C6000,294,6240,196,6480,138.8C6720,82,6960,65,7200,49C7440,33,7680,16,7920,8.2C8160,0,8400,0,8640,0C8880,0,9120,0,9360,65.3C9600,131,9840,261,10080,285.8C10320,310,10560,229,10800,163.3C11040,98,11280,49,11520,98C11760,147,12000,294,12240,310.3C12480,327,12720,212,12960,163.3C13200,114,13440,131,13680,122.5C13920,114,14160,82,14400,65.3C14640,49,14880,49,15120,73.5C15360,98,15600,147,15840,147C16080,147,16320,98,16560,122.5C16800,147,17040,245,17160,294L17280,343L17280,490L17160,490C17040,490,16800,490,16560,490C16320,490,16080,490,15840,490C15600,490,15360,490,15120,490C14880,490,14640,490,14400,490C14160,490,13920,490,13680,490C13440,490,13200,490,12960,490C12720,490,12480,490,12240,490C12000,490,11760,490,11520,490C11280,490,11040,490,10800,490C10560,490,10320,490,10080,490C9840,490,9600,490,9360,490C9120,490,8880,490,8640,490C8400,490,8160,490,7920,490C7680,490,7440,490,7200,490C6960,490,6720,490,6480,490C6240,490,6000,490,5760,490C5520,490,5280,490,5040,490C4800,490,4560,490,4320,490C4080,490,3840,490,3600,490C3360,490,3120,490,2880,490C2640,490,2400,490,2160,490C1920,490,1680,490,1440,490C1200,490,960,490,720,490C480,490,240,490,120,490L0,490Z"/></svg>