<?xml version="1.0" standalone="no"?>
<svg xmlns:xlink="http://www.w3.org/1999/xlink" id="wave" style="transform:rotate(180deg); transition: 0.3s" viewBox="0 0 1440 490" version="1.1" xmlns="http://www.w3.org/2000/svg"><defs><linearGradient id="sw-gradient-0" x1="0" x2="0" y1="1" y2="0"><stop stop-color="rgba(207.508, 200.802, 198.648, 1)" offset="0%"/><stop stop-color="rgba(0, 0, 0, 1)" offset="100%"/></linearGradient></defs><path style="transform:translate(0, 0px); opacity:1" fill="url(#sw-gradient-0)" d="M0,441L80,441C160,441,320,441,480,432.8C640,425,800,408,960,343C1120,278,1280,163,1440,171.5C1600,180,1760,310,1920,359.3C2080,408,2240,376,2400,302.2C2560,229,2720,114,2880,73.5C3040,33,3200,65,3360,81.7C3520,98,3680,98,3840,81.7C4000,65,4160,33,4320,65.3C4480,98,4640,196,4800,253.2C4960,310,5120,327,5280,285.8C5440,245,5600,147,5760,163.3C5920,180,6080,310,6240,343C6400,376,6560,310,6720,253.2C6880,196,7040,147,7200,179.7C7360,212,7520,327,7680,343C7840,359,8000,278,8160,253.2C8320,229,8480,261,8640,285.8C8800,310,8960,327,9120,285.8C9280,245,9440,147,9600,163.3C9760,180,9920,310,10080,334.8C10240,359,10400,278,10560,220.5C10720,163,10880,131,11040,147C11200,163,11360,229,11440,261.3L11520,294L11520,490L11440,490C11360,490,11200,490,11040,490C10880,490,10720,490,10560,490C10400,490,10240,490,10080,490C9920,490,9760,490,9600,490C9440,490,9280,490,9120,490C8960,490,8800,490,8640,490C8480,490,8320,490,8160,490C8000,490,7840,490,7680,490C7520,490,7360,490,7200,490C7040,490,6880,490,6720,490C6560,490,6400,490,6240,490C6080,490,5920,490,5760,490C5600,490,5440,490,5280,490C5120,490,4960,490,4800,490C4640,490,4480,490,4320,490C4160,490,4000,490,3840,490C3680,490,3520,490,3360,490C3200,490,3040,490,2880,490C2720,490,2560,490,2400,490C2240,490,2080,490,1920,490C1760,490,1600,490,1440,490C1280,490,1120,490,960,490C800,490,640,490,480,490C320,490,160,490,80,490L0,490Z"/><defs><linearGradient id="sw-gradient-1" x1="0" x2="0" y1="1" y2="0"><stop stop-color="rgba(173.356, 169.976, 168.89, 1)" offset="0%"/><stop stop-color="rgba(70.901, 69.833, 67.473, 1)" offset="100%"/></linearGradient></defs><path style="transform:translate(0, 50px); opacity:0.9" fill="url(#sw-gradient-1)" d="M0,294L80,253.2C160,212,320,131,480,155.2C640,180,800,310,960,375.7C1120,441,1280,441,1440,408.3C1600,376,1760,310,1920,277.7C2080,245,2240,245,2400,204.2C2560,163,2720,82,2880,81.7C3040,82,3200,163,3360,220.5C3520,278,3680,310,3840,334.8C4000,359,4160,376,4320,318.5C4480,261,4640,131,4800,73.5C4960,16,5120,33,5280,106.2C5440,180,5600,310,5760,326.7C5920,343,6080,245,6240,187.8C6400,131,6560,114,6720,130.7C6880,147,7040,196,7200,196C7360,196,7520,147,7680,171.5C7840,196,8000,294,8160,302.2C8320,310,8480,229,8640,228.7C8800,229,8960,310,9120,334.8C9280,359,9440,327,9600,326.7C9760,327,9920,359,10080,334.8C10240,310,10400,229,10560,212.3C10720,196,10880,245,11040,253.2C11200,261,11360,229,11440,212.3L11520,196L11520,490L11440,490C11360,490,11200,490,11040,490C10880,490,10720,490,10560,490C10400,490,10240,490,10080,490C9920,490,9760,490,9600,490C9440,490,9280,490,9120,490C8960,490,8800,490,8640,490C8480,490,8320,490,8160,490C8000,490,7840,490,7680,490C7520,490,7360,490,7200,490C7040,490,6880,490,6720,490C6560,490,6400,490,6240,490C6080,490,5920,490,5760,490C5600,490,5440,490,5280,490C5120,490,4960,490,4800,490C4640,490,4480,490,4320,490C4160,490,4000,490,3840,490C3680,490,3520,490,3360,490C3200,490,3040,490,2880,490C2720,490,2560,490,2400,490C2240,490,2080,490,1920,490C1760,490,1600,490,1440,490C1280,490,1120,490,960,490C800,490,640,490,480,490C320,490,160,490,80,490L0,490Z"/><defs><linearGradient id="sw-gradient-2" x1="0" x2="0" y1="1" y2="0"><stop stop-color="rgba(212.061, 205.208, 203.007, 1)" offset="0%"/><stop stop-color="rgba(123.267, 120.11, 113.132, 1)" offset="100%"/></linearGradient></defs><path style="transform:translate(0, 100px); opacity:0.8" fill="url(#sw-gradient-2)" d="M0,294L80,261.3C160,229,320,163,480,187.8C640,212,800,327,960,326.7C1120,327,1280,212,1440,147C1600,82,1760,65,1920,49C2080,33,2240,16,2400,32.7C2560,49,2720,98,2880,106.2C3040,114,3200,82,3360,130.7C3520,180,3680,310,3840,310.3C4000,310,4160,180,4320,163.3C4480,147,4640,245,4800,269.5C4960,294,5120,245,5280,212.3C5440,180,5600,163,5760,204.2C5920,245,6080,343,6240,326.7C6400,310,6560,180,6720,155.2C6880,131,7040,212,7200,204.2C7360,196,7520,98,7680,89.8C7840,82,8000,163,8160,212.3C8320,261,8480,278,8640,277.7C8800,278,8960,261,9120,228.7C9280,196,9440,147,9600,163.3C9760,180,9920,261,10080,277.7C10240,294,10400,245,10560,245C10720,245,10880,294,11040,334.8C11200,376,11360,408,11440,424.7L11520,441L11520,490L11440,490C11360,490,11200,490,11040,490C10880,490,10720,490,10560,490C10400,490,10240,490,10080,490C9920,490,9760,490,9600,490C9440,490,9280,490,9120,490C8960,490,8800,490,8640,490C8480,490,8320,490,8160,490C8000,490,7840,490,7680,490C7520,490,7360,490,7200,490C7040,490,6880,490,6720,490C6560,490,6400,490,6240,490C6080,490,5920,490,5760,490C5600,490,5440,490,5280,490C5120,490,4960,490,4800,490C4640,490,4480,490,4320,490C4160,490,4000,490,3840,490C3680,490,3520,490,3360,490C3200,490,3040,490,2880,490C2720,490,2560,490,2400,490C2240,490,2080,490,1920,490C1760,490,1600,490,1440,490C1280,490,1120,490,960,490C800,490,640,490,480,490C320,490,160,490,80,490L0,490Z"/><defs><linearGradient id="sw-gradient-3" x1="0" x2="0" y1="1" y2="0"><stop stop-color="rgba(52.686, 50.758, 50.139, 1)" offset="0%"/><stop stop-color="rgba(146.034, 143.322, 137.326, 1)" offset="100%"/></linearGradient></defs><path style="transform:translate(0, 150px); opacity:0.7" fill="url(#sw-gradient-3)" d="M0,392L80,400.2C160,408,320,425,480,408.3C640,392,800,343,960,318.5C1120,294,1280,294,1440,245C1600,196,1760,98,1920,65.3C2080,33,2240,65,2400,73.5C2560,82,2720,65,2880,65.3C3040,65,3200,82,3360,138.8C3520,196,3680,294,3840,285.8C4000,278,4160,163,4320,114.3C4480,65,4640,82,4800,73.5C4960,65,5120,33,5280,89.8C5440,147,5600,294,5760,294C5920,294,6080,147,6240,147C6400,147,6560,294,6720,310.3C6880,327,7040,212,7200,179.7C7360,147,7520,196,7680,204.2C7840,212,8000,180,8160,196C8320,212,8480,278,8640,326.7C8800,376,8960,408,9120,392C9280,376,9440,310,9600,261.3C9760,212,9920,180,10080,196C10240,212,10400,278,10560,261.3C10720,245,10880,147,11040,155.2C11200,163,11360,278,11440,334.8L11520,392L11520,490L11440,490C11360,490,11200,490,11040,490C10880,490,10720,490,10560,490C10400,490,10240,490,10080,490C9920,490,9760,490,9600,490C9440,490,9280,490,9120,490C8960,490,8800,490,8640,490C8480,490,8320,490,8160,490C8000,490,7840,490,7680,490C7520,490,7360,490,7200,490C7040,490,6880,490,6720,490C6560,490,6400,490,6240,490C6080,490,5920,490,5760,490C5600,490,5440,490,5280,490C5120,490,4960,490,4800,490C4640,490,4480,490,4320,490C4160,490,4000,490,3840,490C3680,490,3520,490,3360,490C3200,490,3040,490,2880,490C2720,490,2560,490,2400,490C2240,490,2080,490,1920,490C1760,490,1600,490,1440,490C1280,490,1120,490,960,490C800,490,640,490,480,490C320,490,160,490,80,490L0,490Z"/></svg>